<?xml version="1.0" encoding="utf-8"?>
<!-- Generator: Adobe Illustrator 27.3.1, SVG Export Plug-In . SVG Version: 6.00 Build 0)  -->
<svg version="1.1" id="Layer_1" xmlns="http://www.w3.org/2000/svg" xmlns:xlink="http://www.w3.org/1999/xlink" x="0px" y="0px"
	 viewBox="0 0 710.67 194.67" style="enable-background:new 0 0 710.67 194.67;" xml:space="preserve">
<style type="text/css">
	.st0{fill:#770A0F;}
	.st1{fill:#C3191C;stroke:#FFFFFF;stroke-width:3;stroke-miterlimit:10;}
	.st2{fill:#FFFFFF;}
	.st3{fill:#4D4D4D;}
</style>
<g>
	<g>
		<g>
			<rect x="13.67" y="15.35" class="st0" width="682" height="163.74"/>
			<rect x="23.86" y="26.37" class="st1" width="661.61" height="141.7"/>
			<g>
				<path class="st2" d="M43.32,151.84V43.29h25.6v47.24l35.86-47.24h30.84L94.68,94.94l44.17,56.89h-31.29l-38.63-50.01v50.01
					H43.32z"/>
				<path class="st2" d="M147.75,151.84V43.29h66.85v22.38h-41.7v19.61h35.71v22.23h-35.71V129h42.3v22.83H147.75z"/>
				<path class="st2" d="M226.06,151.84l22.53-112.07h1.87l40.95,70.67l38.63-70.67h1.95l22.68,112.07h-24.63l-9.21-49.56
					l-29.12,53.53h-1.72l-31.29-54.27l-9.51,50.31H226.06z"/>
				<path class="st2" d="M552.9,77.65c-4.69-4.84-9.45-8.43-14.26-10.78c-4.82-2.35-9.87-3.52-15.16-3.52
					c-9.18,0-16.69,3.17-22.53,9.51c-5.84,6.34-8.76,14.47-8.76,24.4c0,9.93,2.89,17.98,8.68,24.14c5.79,6.16,13.33,9.25,22.61,9.25
					c5.49,0,10.97-1.15,16.43-3.44c5.46-2.29,10.92-5.74,16.36-10.33l-1.65,28.82c-4.64,3.14-9.72,5.54-15.23,7.19
					c-5.52,1.65-11.24,2.47-17.18,2.47c-6.39,0-12.51-1-18.38-2.99c-5.87-2-11.27-4.94-16.21-8.83
					c-6.99-5.49-12.34-12.19-16.06-20.1c-3.72-7.91-5.58-16.53-5.58-25.86c0-8.03,1.37-15.57,4.12-22.61
					c2.74-7.04,6.74-13.25,11.98-18.64c5.29-5.39,11.4-9.52,18.34-12.39c6.94-2.87,14.25-4.3,21.93-4.3c6.09,0,11.9,0.85,17.44,2.54
					c5.54,1.7,10.83,4.27,15.87,7.71L552.9,77.65z"/>
				<path class="st2" d="M573.11,151.84V43.29h25.6v39.83h41.85V43.29h25.45v108.55h-25.45v-45.51h-41.85v45.51H573.11z"/>
				<g>
					<polygon class="st2" points="394.04,117.33 394.1,117.33 394.93,115.24 					"/>
					<path class="st2" d="M430.17,136.04h0.4l6.89,15.8h27.1L416.39,43.06c-2.84-5.88-11.2-5.9-14.07-0.04l-48.85,108.82h26.05
						l7.04-15.8h0.1l7.45-18.71h-0.06l0.89-2.09l4.69-11.78l0.34-0.04l8.53-20.07l14.07,33.99"/>
					<polygon class="st2" points="399.62,103.45 394.93,115.24 399.96,103.41 					"/>
				</g>
				<polygon class="st2" points="425.22,122.31 394.4,122.4 416.4,151.84 457.4,151.84 				"/>
			</g>
		</g>
		<g>
			<path class="st0" d="M446.69,124.72l-29.7-74.87c-1.25-3.08-4.14-5.06-7.34-5.06l-0.15,0c-3.07,0.04-5.88,1.98-7.14,4.95
				l-42.38,103.15h14.19L409.7,65.4l23.15,58.82h-33.36l19,24.43c0.92,1.18,2.29,1.92,3.78,2.05c1.49,0.13,2.97-0.37,4.07-1.37
				l18.55-16.59C447.18,130.77,447.92,127.48,446.69,124.72z"/>
			<polygon class="st0" points="450.93,134.94 439.96,142.44 443.02,149.22 457.2,149.22 			"/>
			<circle class="st2" cx="409.63" cy="53.18" r="5.02"/>
			<circle class="st2" cx="440.17" cy="127.72" r="4.5"/>
		</g>
	</g>
</g>
</svg>
